<?xml version="1.0" encoding="UTF-8"?>
<svg width="512px" height="512px" viewBox="0 0 512 512" version="1.1" xmlns="http://www.w3.org/2000/svg" xmlns:xlink="http://www.w3.org/1999/xlink">
    <!-- Generator: Sketch 47.1 (45422) - http://www.bohemiancoding.com/sketch -->
    <title>icon</title>
    <desc>Created with Sketch.</desc>
    <defs></defs>
    <g id="Page-1" stroke="none" stroke-width="1" fill="none" fill-rule="evenodd">
        <g id="icon">
            <g>
                <circle id="Oval-Copy" fill="#7C00C4" cx="256" cy="256" r="256"></circle>
                <g transform="translate(157.000000, 86.000000)" id="Shape" fill-rule="nonzero" fill="#FFFFFF">
                    <path d="M155.971698,1.65832324e-14 L42.0283019,1.65832324e-14 C18.8167117,0 0,18.808466 0,42.0098847 L0,297.990115 C0,321.191534 18.8167117,340 42.0283019,340 L155.971698,340 C179.183288,340 198,321.191534 198,297.990115 L198,42.0098847 C198,18.808466 179.183288,0 155.971698,1.65832324e-14 Z M188.660377,251.172433 L9.33962264,251.172433 L9.33962264,55.1263042 L188.660377,55.1263042 L188.660377,251.172433 Z M155.971698,330.524437 L42.0283019,330.524437 C23.9748428,330.524437 9.33962264,315.89563 9.33962264,297.850082 L9.33962264,260.507963 L188.660377,260.507963 L188.660377,297.850082 C188.697637,306.540097 185.270117,314.886967 179.135757,321.044917 C173.001397,327.202867 164.665602,330.66455 155.971698,330.66447 L155.971698,330.524437 Z M188.660377,45.7907743 L9.33962264,45.7907743 L9.33962264,42.0098847 C9.33962264,23.9643368 23.9748428,9.33552993 42.0283019,9.33552993 L155.971698,9.33552993 C174.025157,9.33552993 188.660377,23.9643368 188.660377,42.0098847 L188.660377,45.7907743 Z"></path>
                    <path d="M109.099514,290.480121 C108.860536,289.927691 108.576108,289.396629 108.249243,288.892558 C107.93856,288.389911 107.562222,287.932171 107.130465,287.53179 C103.583069,284.15607 98.0580459,284.15607 94.5106497,287.53179 C94.0792874,287.932553 93.7029962,288.390235 93.3918717,288.892558 C93.0484117,289.386373 92.7630532,289.919173 92.5416005,290.480121 C92.3365553,291.026358 92.172011,291.587342 92.0493382,292.158401 C91.9835539,292.746182 91.9835539,293.339619 92.0493382,293.9274 C92.047448,296.345233 92.9978856,298.663796 94.6896541,300.368369 C95.4994568,301.214143 96.4751068,301.878561 97.5537257,302.318803 C98.6467626,302.773936 99.8178991,303.005179 100.999562,302.999187 C103.368945,303.03181 105.648524,302.081374 107.309469,300.368369 C109.001238,298.663796 109.951676,296.345233 109.949785,293.9274 C110.016738,293.339686 110.016738,292.746115 109.949785,292.158401 C109.711209,291.576775 109.426869,291.015539 109.099514,290.480121 Z"></path>
                </g>
                <rect id="Rectangle" fill="#FFFFFF" x="165" y="139" width="182" height="199"></rect>
                <g id="question" transform="translate(223.000000, 175.000000)" fill-rule="nonzero" fill="#7C00C4">
                    <path d="M4.56469577,38.0582094 C7.15135671,38.0582094 9.12939154,36.0742003 9.12939154,33.4797268 C9.12939154,26.4593869 12.0203655,19.8968953 17.1936874,15.3184127 C22.3670093,10.5873141 29.2140529,8.4506889 36.2132531,9.21376933 C47.472836,10.434698 56.450071,19.5916631 57.6673232,30.7326373 C58.7324189,39.8896024 54.6241927,48.5887193 47.168523,53.7776662 C35.7567835,61.7137026 28.9097399,74.6860698 28.9097399,88.4215174 C28.9097399,91.0159909 30.8877747,93 33.4744356,93 C36.0610966,93 38.0391314,91.0159909 38.0391314,88.4215174 C38.0391314,77.7383915 43.3646098,67.5131138 52.3418448,61.4084704 C62.5363321,54.3881305 68.1661235,42.1788437 66.7967148,29.8169408 C65.122993,14.4027162 52.6461579,1.88819725 37.2783488,0.209420314 C27.6924877,-0.858892281 18.2587831,2.19342942 11.1074264,8.60330499 C3.95606967,14.8605645 0,23.8649135 0,33.4797268 C0,36.0742003 1.97803483,38.0582094 4.56469577,38.0582094 Z" id="Shape"></path>
                    <circle id="Oval" cx="33" cy="111" r="10"></circle>
                </g>
            </g>
        </g>
    </g>
</svg>